<?xml version="1.0" encoding="UTF-8" standalone="no"?>
<!DOCTYPE svg PUBLIC "-//W3C//DTD SVG 1.1//EN" "http://www.w3.org/Graphics/SVG/1.1/DTD/svg11.dtd">
<svg width="100%" height="100%" viewBox="0 0 75 75" version="1.1" xmlns="http://www.w3.org/2000/svg" xmlns:xlink="http://www.w3.org/1999/xlink" xml:space="preserve" xmlns:serif="http://www.serif.com/" style="fill-rule:evenodd;clip-rule:evenodd;stroke-linejoin:round;stroke-miterlimit:2;">
    <circle cx="37.5" cy="37.5" r="37.5" style="fill:rgb(235,235,235);"/>
    <clipPath id="_clip1">
        <circle cx="37.5" cy="37.5" r="37.5"/>
    </clipPath>
    <g clip-path="url(#_clip1)">
        <g transform="matrix(0.0823256,0,0,0.0823256,-5.60872,-5.66375)">
            <path d="M810.692,538.206L1050.31,582.141L1038.74,1060.62L373.468,1040.48L389.471,980L514.355,680.924L612.784,637.869L810.692,538.206Z" style="fill:rgb(89,119,141);"/>
            <path d="M810.692,538.206L933.095,529.428L980,534.412L980,749.499L961.512,728.871L980,645.198L923.66,772.455L974.503,597.156L871.987,731.015L957.735,582.856L850.326,682.489L901.825,599.1L810.692,538.206Z" style="fill:rgb(89,119,141);"/>
            <path d="M612.784,637.869L514.355,680.924L389.471,980L479.944,970.631L420.722,921.879L513.293,931.092L434.961,897.496L514.282,907.025L454.258,874.442L474.614,805.5L520.351,863.923L484.134,782.154L518.934,815.542L513.29,741.647L537.616,698.759L570.185,825.609L554.02,680.77L591.294,794.234L571.948,677.171L597.308,665.562L597.308,759.546L612.784,637.869Z" style="fill:rgb(101,126,144);"/>
            <path d="M810.692,538.206L842.921,594.492L840.416,700.077L827.262,902.095L835.642,980L708.996,980L652.747,759.546L643.03,731.207L754.646,679.379L790.176,577.93L810.692,538.206Z" style="fill:rgb(89,119,141);"/>
            <path d="M514.355,680.924L612.784,637.869L638.809,660.987L689.99,750.583L708.996,980L389.471,980L514.355,680.924Z" style="fill:rgb(101,126,143);"/>
            <path d="M624.639,649.873L626.194,714.014L689.99,719.337L672.587,684.561L624.639,649.873Z" style="fill:rgb(46,57,64);"/>
            <path d="M776.952,533.781L810.692,538.206L820.066,603.805L792.89,682.04L707.386,749.11L652.747,759.546L626.194,714.014L676.557,714.014L724.986,656.433L759.995,560.257L755.854,516.193L776.952,533.781Z" style="fill:rgb(71,102,125);"/>
            <path d="M594.1,605.203L631.561,670.7L676.557,714.014L737.688,672.066L777.142,598.385L765.999,531.449L758.838,508.722L760.643,468.714L785.88,433.434L783.434,341.477L747.143,359.048L727.473,437.707L676.348,565.557L594.1,605.203Z" style="fill:rgb(170,129,109);"/>
            <path d="M482.585,451.059L500.725,522.337L539.788,578.641L729.519,457.065L741.559,395.644L719.204,268.839L616.392,230.745L483.648,249.173L451.293,356.94L482.585,451.059Z" style="fill:rgb(177,138,119);"/>
            <path d="M456.24,281.456L560.713,364.015L544.048,441.257L674.975,485.1L798.037,333.197L609.842,218.709L499.219,240.9L456.24,281.456Z" style="fill:rgb(170,129,110);"/>
            <path d="M544.048,441.257L692.272,490L655.044,573.129L554.425,595.187L512.049,547.284L540.321,502.653L532.555,447.873L544.048,441.257Z" style="fill:rgb(170,129,109);"/>
            <path d="M641.481,513.694L578.683,541.503L529.047,545.709L547.565,514.767L565.458,516.879L581.863,500.077L641.481,513.694Z" style="fill:rgb(146,105,93);"/>
            <path d="M529.047,545.709L551.814,528.215L572.692,525.892L587.505,516.879L641.481,513.694L589.259,520.143L575.158,529.045L553.332,531.026L529.047,545.709Z" style="fill:rgb(131,80,70);"/>
            <g>
                <path d="M572.692,477.032L572.692,497.982L655.427,516.879L663.209,500.909L639.723,483.627L572.692,477.032Z" style="fill:rgb(157,122,104);"/>
                <path d="M514.391,537.384L545.608,485.418L558.225,496.955L526.229,550.419L514.391,537.384Z" style="fill:rgb(157,122,104);"/>
                <path d="M741.559,395.644L657.393,508.722L645.405,558.456L614.808,564.307L578.683,541.503L561.336,589.076L500.725,522.337L523.103,571.635L567.297,617.372L636.588,617.032L743.994,530.499L756.86,466.563L741.559,395.644Z" style="fill:rgb(157,122,104);"/>
            </g>
            <path d="M542.305,465.537L552.114,473.947L550.347,482.506L541.039,474.85L542.305,465.537Z" style="fill:rgb(113,87,75);"/>
            <path d="M559.566,461.973L568.095,456.514L585.817,462.6L576.293,467.397L571.146,463.21L559.566,461.973Z" style="fill:rgb(114,87,75);"/>
            <path d="M490,426.336L517.306,453.122L538.847,424.991L541.039,406.124L533.512,405.33L495.401,421.489L490,426.336Z" style="fill:rgb(177,138,120);"/>
            <path d="M584.138,387.876L634.384,419.216L678.984,366.042L662.311,358.779L584.138,387.876Z" style="fill:rgb(170,129,109);"/>
            <path d="M495.764,422.104L490,426.336L491.432,410.377L522.41,390.274L542.305,397.452L541.039,406.124L538.847,406.022L495.764,422.104Z" style="fill:rgb(125,97,84);"/>
            <path d="M599.205,383.307L584.138,387.876L599.205,362.498L635.365,353.694L662.311,358.779L652.517,367.865L599.205,383.307Z" style="fill:rgb(125,97,84);"/>
            <path d="M541.039,406.124L531.099,401.108L507.606,406.326L495.764,422.104L515.261,421.835L532.555,414.316L541.039,406.124Z" style="fill:rgb(183,183,183);"/>
            <path d="M531.099,401.108L532.555,414.316L515.261,421.835L507.606,406.326L531.099,401.108Z" style="fill:rgb(44,59,76);"/>
            <path d="M599.205,383.307L616.392,365.714L641.365,360.596L652.517,367.865L641.917,375.588L624.108,383.307L599.205,383.307Z" style="fill:rgb(183,183,183);"/>
            <path d="M624.108,383.307L641.917,375.588L641.365,360.596L616.392,365.714L624.108,383.307Z" style="fill:rgb(44,59,76);"/>
            <path d="M526.229,550.419L529.047,545.709L578.683,541.503L561.336,589.076L526.229,550.419Z" style="fill:rgb(177,138,120);"/>
            <path d="M601.06,617.372L620.578,617.11L642.045,665.22L676.557,714.014L631.561,670.7L601.06,617.372Z" style="fill:rgb(175,137,120);"/>
            <path d="M561.336,349.448L627.881,329.161L686.879,343.011L616.392,345.106L568.776,362.498L561.336,349.448Z" style="fill:rgb(95,81,72);"/>
            <path d="M519.393,362.498L527.69,378.893L498.353,388.757L474.725,404.116L473.512,396.867L494.951,372.866L519.393,362.498Z" style="fill:rgb(95,81,72);"/>
            <path d="M741.559,395.644L706.726,316.898L685.644,329.709L690.823,308.44L672.729,274.747L675.393,304.619L664.432,324.34L669.461,296.31L660.408,272.471L647.776,288.083L664.484,303.413L644.66,323.985L654.263,308.771L641.371,295.957L637.761,315.315L609.917,308.165L629.632,305.152L623.476,284.462L592.421,311.455L590.119,282.504L563.367,294.727L578.596,257.351L540.337,282.334L527.867,273.593L512.768,302.797L540.397,333.968L504.481,303.435L510.993,271.087L490,283.244L493.809,305.047L475.089,313.479L468.058,364.294L482.585,451.059L434.523,378.394L438.028,346.396L429.567,346.599L437.721,376.608L424.931,347.067L410.972,335.592L426.27,337.374L433.963,323.199L434.989,309.354L413.849,288.453L438.295,302.014L447.343,275.317L432.046,289.204L420.246,276.041L433.566,283.61L448.712,264.711L434.869,229.811L452.673,229.639L442.939,235.653L451.995,258.972L498.377,198.073L492.142,180.692L486.113,185.977L492.818,174.845L502.086,187.518L507.763,164.852L513.866,171.751L509.633,172.432L508.16,188.293L555.173,149.601L570.411,151.366L555.888,156.622L548.081,168.282L570.482,174.457L592.667,150.152L620.999,157.458L627.876,172.02L622.131,172.65L614.251,163.291L593.583,156.257L582.218,180.05L608.834,161.447L604.996,174.527L657.838,168.737L680.68,193.532L716.157,195.864L733.634,208.936L755.846,212.072L775.416,239.132L796.91,242.043L803.002,278.895L820.895,286.381L821.812,306.587L817.094,291.046L802.451,286.853L815.113,319.278L803.745,391.839L787.001,442.352L758.838,508.722L756.775,466.008L782.225,434.935L777.968,351.164L755.724,366.665L741.559,395.644Z" style="fill:rgb(95,81,72);"/>
        </g>
    </g>
</svg>
